<svg width="50" height="50" viewBox="0 0 50 50" fill="none" xmlns="http://www.w3.org/2000/svg">
<path d="M50 25C50 38.8071 38.8071 50 25 50C11.1929 50 0 38.8071 0 25C0 11.1929 11.1929 0 25 0C38.8071 0 50 11.1929 50 25ZM5 25C5 36.0457 13.9543 45 25 45C36.0457 45 45 36.0457 45 25C45 13.9543 36.0457 5 25 5C13.9543 5 5 13.9543 5 25Z" fill="#1E6091"/>
<path d="M25 2.5C25 1.11929 26.1221 -0.0129485 27.4959 0.124895C30.5757 0.433915 33.5789 1.31302 36.3498 2.72484C39.865 4.51595 42.9065 7.11358 45.2254 10.3054C47.5444 13.4971 49.075 17.1924 49.6922 21.0891C50.3094 24.9858 49.9956 28.9733 48.7764 32.7254C47.5573 36.4776 45.4674 39.8879 42.6777 42.6777C39.888 45.4674 36.4776 47.5573 32.7254 48.7764C28.9733 49.9956 24.9858 50.3094 21.0891 49.6922C18.0176 49.2057 15.0713 48.1517 12.398 46.5914C11.2055 45.8954 10.9633 44.3199 11.7748 43.2029C12.5864 42.0859 14.1438 41.8538 15.3533 42.5198C17.3749 43.6329 19.5796 44.3908 21.8713 44.7538C24.9887 45.2475 28.1786 44.9965 31.1803 44.0211C34.1821 43.0458 36.9104 41.3739 39.1421 39.1421C41.3739 36.9104 43.0458 34.1821 44.0211 31.1803C44.9965 28.1786 45.2475 24.9887 44.7538 21.8713C44.26 18.754 43.0355 15.7977 41.1803 13.2443C39.3252 10.6909 36.892 8.61276 34.0798 7.17987C32.0124 6.12647 29.7833 5.44377 27.4935 5.15605C26.1236 4.9839 25 3.88071 25 2.5Z" fill="#52B69A"/>
</svg>
