<svg width="50" height="50" viewBox="0 0 50 50" fill="none" xmlns="http://www.w3.org/2000/svg">
<path d="M50 25C50 38.8071 38.8071 50 25 50C11.1929 50 0 38.8071 0 25C0 11.1929 11.1929 0 25 0C38.8071 0 50 11.1929 50 25ZM5 25C5 36.0457 13.9543 45 25 45C36.0457 45 45 36.0457 45 25C45 13.9543 36.0457 5 25 5C13.9543 5 5 13.9543 5 25Z" fill="#1E6091"/>
<path d="M9.0901 9.09009C8.11379 8.11378 8.1066 6.51974 9.1755 5.64577C12.5923 2.8521 16.7007 1.00285 21.0891 0.307792C25.4776 -0.387268 29.9564 0.101891 34.0692 1.70299C35.3559 2.20388 35.8416 3.72213 35.2148 4.95235C34.588 6.18257 33.0859 6.65539 31.7872 6.18684C28.6268 5.04666 25.2162 4.71645 21.8713 5.24623C18.5264 5.77602 15.3848 7.14398 12.7314 9.20497C11.641 10.0519 10.0664 10.0664 9.0901 9.09009Z" fill="#52B69A"/>
</svg>
